<svg xmlns="http://www.w3.org/2000/svg" width="100%" viewBox="0 0 680 480" role="img"><title>GENESIS CEO AI秘書フロー</title><defs><marker id="ar" viewBox="0 0 10 10" refX="9" refY="5" markerWidth="7" markerHeight="7" orient="auto-start-reverse"><path d="M0 0L10 5L0 10z" fill="#6b7f99"/></marker></defs><rect x="0" y="0" width="680" height="480" rx="12" fill="#05070d"/><rect x="40" y="16" width="260" height="30" rx="7" fill="#141D2B" stroke="#7C8DA6" stroke-width="1.3"/><text x="170" y="36.5" text-anchor="middle" font-size="13.5" font-weight="600" fill="#D9E1EC" font-family="ui-sans-serif, system-ui, sans-serif">GENESIS — CEO AI秘書 / Inbox</text><rect x="40" y="64" width="340" height="56" rx="7" fill="#0B2E55" stroke="#5EA1E6" stroke-width="1.3"/><text x="210" y="85" text-anchor="middle" font-size="16" font-weight="600" fill="#D6E8FB" font-family="ui-sans-serif, system-ui, sans-serif">info@ 宛の問い合わせメール</text><text x="210" y="108" text-anchor="middle" font-size="13" fill="#8FBFF0" font-family="ui-sans-serif, system-ui, sans-serif">お名前サーバー → Gmail転送</text><line x1="210" y1="120" x2="210" y2="144" stroke="#6b7f99" stroke-width="1.6" marker-end="url(#ar)"/><rect x="40" y="148" width="340" height="56" rx="7" fill="#07364A" stroke="#3ECBEC" stroke-width="1.3"/><text x="210" y="169" text-anchor="middle" font-size="16" font-weight="600" fill="#CDF3FC" font-family="ui-sans-serif, system-ui, sans-serif">CEO AI秘書が確認・分類</text><text x="210" y="192" text-anchor="middle" font-size="13" fill="#7ADFF5" font-family="ui-sans-serif, system-ui, sans-serif">スケジュールタスクで定期実行</text><line x1="210" y1="204" x2="210" y2="228" stroke="#6b7f99" stroke-width="1.6" marker-end="url(#ar)"/><rect x="40" y="232" width="340" height="56" rx="7" fill="#141D2B" stroke="#7C8DA6" stroke-width="1.3"/><text x="210" y="253" text-anchor="middle" font-size="16" font-weight="600" fill="#D9E1EC" font-family="ui-sans-serif, system-ui, sans-serif">sec_inquiries に記録</text><text x="210" y="276" text-anchor="middle" font-size="13" fill="#9AABC4" font-family="ui-sans-serif, system-ui, sans-serif">返信下書きを自動作成（0017）</text><line x1="210" y1="288" x2="210" y2="312" stroke="#6b7f99" stroke-width="1.6" marker-end="url(#ar)"/><rect x="40" y="316" width="340" height="56" rx="7" fill="#232060" stroke="#9BA6F2" stroke-width="1.3"/><text x="210" y="337" text-anchor="middle" font-size="16" font-weight="600" fill="#DDE1FC" font-family="ui-sans-serif, system-ui, sans-serif">/inbox で古川さんが承認</text><text x="210" y="360" text-anchor="middle" font-size="13" fill="#AEB6F5" font-family="ui-sans-serif, system-ui, sans-serif">承認・修正・却下を判断</text><line x1="210" y1="372" x2="210" y2="396" stroke="#6b7f99" stroke-width="1.6" marker-end="url(#ar)"/><rect x="40" y="400" width="340" height="56" rx="7" fill="#0B2E55" stroke="#5EA1E6" stroke-width="1.3"/><text x="210" y="421" text-anchor="middle" font-size="16" font-weight="600" fill="#D6E8FB" font-family="ui-sans-serif, system-ui, sans-serif">下書き方式で返信</text><text x="210" y="444" text-anchor="middle" font-size="13" fill="#8FBFF0" font-family="ui-sans-serif, system-ui, sans-serif">AIは勝手に送信しない</text><rect x="430" y="316" width="218" height="56" rx="7" fill="#141D2B" stroke="#7C8DA6" stroke-width="1.3"/><text x="539" y="337" text-anchor="middle" font-size="13.5" font-weight="600" fill="#D9E1EC" font-family="ui-sans-serif, system-ui, sans-serif">承認の同じ入口</text><text x="539" y="360" text-anchor="middle" font-size="12" fill="#9AABC4" font-family="ui-sans-serif, system-ui, sans-serif">approval_requests（各OS共通）</text><line x1="380" y1="344" x2="426" y2="344" stroke="#6b7f99" stroke-width="1.6" marker-end="url(#ar)"/></svg>