<svg xmlns="http://www.w3.org/2000/svg" width="100%" viewBox="0 0 680 396" role="img"><title>GolfOrder フロー</title><defs><marker id="ar" viewBox="0 0 10 10" refX="9" refY="5" markerWidth="7" markerHeight="7" orient="auto-start-reverse"><path d="M0 0L10 5L0 10z" fill="#6b7f99"/></marker></defs><rect x="0" y="0" width="680" height="396" rx="12" fill="#05070d"/><rect x="40" y="16" width="260" height="30" rx="7" fill="#141D2B" stroke="#7C8DA6" stroke-width="1.3"/><text x="170" y="36.5" text-anchor="middle" font-size="13.5" font-weight="600" fill="#D9E1EC" font-family="ui-sans-serif, system-ui, sans-serif">golfwing（GolfOrder・発注）</text><rect x="40" y="64" width="340" height="56" rx="7" fill="#0B2E55" stroke="#5EA1E6" stroke-width="1.3"/><text x="210" y="85" text-anchor="middle" font-size="16" font-weight="600" fill="#D6E8FB" font-family="ui-sans-serif, system-ui, sans-serif">店頭で注文を受ける</text><text x="210" y="108" text-anchor="middle" font-size="13" fill="#8FBFF0" font-family="ui-sans-serif, system-ui, sans-serif">GolfOrder（Vite / Hono）</text><line x1="210" y1="120" x2="210" y2="144" stroke="#6b7f99" stroke-width="1.6" marker-end="url(#ar)"/><rect x="40" y="148" width="340" height="56" rx="7" fill="#141D2B" stroke="#7C8DA6" stroke-width="1.3"/><text x="210" y="169" text-anchor="middle" font-size="16" font-weight="600" fill="#D9E1EC" font-family="ui-sans-serif, system-ui, sans-serif">注文データ</text><text x="210" y="192" text-anchor="middle" font-size="13" fill="#9AABC4" font-family="ui-sans-serif, system-ui, sans-serif">D1 → Supabase 移行中（#19）</text><line x1="210" y1="204" x2="210" y2="228" stroke="#6b7f99" stroke-width="1.6" marker-end="url(#ar)"/><rect x="40" y="232" width="340" height="56" rx="7" fill="#07364A" stroke="#3ECBEC" stroke-width="1.3"/><text x="210" y="253" text-anchor="middle" font-size="16" font-weight="600" fill="#CDF3FC" font-family="ui-sans-serif, system-ui, sans-serif">ワークスへ発注</text><text x="210" y="276" text-anchor="middle" font-size="13" fill="#7ADFF5" font-family="ui-sans-serif, system-ui, sans-serif">発注メール → WebEDI用CSVを生成</text><line x1="210" y1="288" x2="210" y2="312" stroke="#6b7f99" stroke-width="1.6" marker-end="url(#ar)"/><rect x="40" y="316" width="340" height="56" rx="7" fill="#0B2E55" stroke="#5EA1E6" stroke-width="1.3"/><text x="210" y="337" text-anchor="middle" font-size="16" font-weight="600" fill="#D6E8FB" font-family="ui-sans-serif, system-ui, sans-serif">仕入・注残を管理</text><text x="210" y="360" text-anchor="middle" font-size="13" fill="#8FBFF0" font-family="ui-sans-serif, system-ui, sans-serif">実装済・商品コードマスタ待ちで未デプロイ</text><rect x="430" y="232" width="218" height="56" rx="7" fill="#141D2B" stroke="#7C8DA6" stroke-width="1.3"/><text x="539" y="253" text-anchor="middle" font-size="13.5" font-weight="600" fill="#D9E1EC" font-family="ui-sans-serif, system-ui, sans-serif">supplier_item_code 列</text><text x="539" y="276" text-anchor="middle" font-size="12" fill="#9AABC4" font-family="ui-sans-serif, system-ui, sans-serif">商品コードマスタ（0016適用済）</text><line x1="380" y1="260" x2="426" y2="260" stroke="#6b7f99" stroke-width="1.6" marker-end="url(#ar)"/></svg>