<svg xmlns="http://www.w3.org/2000/svg" width="100%" viewBox="0 0 680 590" role="img"><title>全体接続マップ</title><defs><marker id="ar" viewBox="0 0 10 10" refX="9" refY="5" markerWidth="7" markerHeight="7" orient="auto-start-reverse"><path d="M0 0L10 5L0 10z" fill="#8a897f"/></marker></defs><rect x="40" y="40" width="135" height="44" rx="6" fill="#3E3E3B" stroke="#B4B2A9" stroke-width="1.2"/><text x="107.5" y="67" text-anchor="middle" font-size="12" font-weight="600" fill="#D3D1C7" font-family="ui-sans-serif, system-ui, sans-serif">Smart Hello xlsx</text><rect x="195" y="40" width="135" height="44" rx="6" fill="#3E3E3B" stroke="#B4B2A9" stroke-width="1.2"/><text x="262.5" y="67" text-anchor="middle" font-size="12" font-weight="600" fill="#D3D1C7" font-family="ui-sans-serif, system-ui, sans-serif">銀行・AMEX CSV</text><rect x="350" y="40" width="135" height="44" rx="6" fill="#3E3E3B" stroke="#B4B2A9" stroke-width="1.2"/><text x="417.5" y="67" text-anchor="middle" font-size="12" font-weight="600" fill="#D3D1C7" font-family="ui-sans-serif, system-ui, sans-serif">ワークスWebEDI</text><rect x="505" y="40" width="135" height="44" rx="6" fill="#3E3E3B" stroke="#B4B2A9" stroke-width="1.2"/><text x="572.5" y="67" text-anchor="middle" font-size="12" font-weight="600" fill="#D3D1C7" font-family="ui-sans-serif, system-ui, sans-serif">Web・LINE・メール</text><line x1="107" y1="84" x2="107" y2="120" stroke="#8a897f" stroke-width="1.5" marker-end="url(#ar)"/><line x1="262" y1="84" x2="262" y2="120" stroke="#8a897f" stroke-width="1.5" marker-end="url(#ar)"/><line x1="417" y1="84" x2="417" y2="120" stroke="#8a897f" stroke-width="1.5" marker-end="url(#ar)"/><line x1="572" y1="84" x2="572" y2="120" stroke="#8a897f" stroke-width="1.5" marker-end="url(#ar)"/><rect x="40" y="124" width="135" height="44" rx="6" fill="#085041" stroke="#5DCAA5" stroke-width="1.2"/><text x="107.5" y="151" text-anchor="middle" font-size="12" font-weight="600" fill="#9FE1CB" font-family="ui-sans-serif, system-ui, sans-serif">member-os</text><rect x="195" y="124" width="135" height="44" rx="6" fill="#085041" stroke="#5DCAA5" stroke-width="1.2"/><text x="262.5" y="151" text-anchor="middle" font-size="12" font-weight="600" fill="#9FE1CB" font-family="ui-sans-serif, system-ui, sans-serif">money-golfwing</text><rect x="350" y="124" width="135" height="44" rx="6" fill="#085041" stroke="#5DCAA5" stroke-width="1.2"/><text x="417.5" y="151" text-anchor="middle" font-size="12" font-weight="600" fill="#9FE1CB" font-family="ui-sans-serif, system-ui, sans-serif">GolfOrder</text><rect x="505" y="124" width="135" height="44" rx="6" fill="#085041" stroke="#5DCAA5" stroke-width="1.2"/><text x="572.5" y="151" text-anchor="middle" font-size="12" font-weight="600" fill="#9FE1CB" font-family="ui-sans-serif, system-ui, sans-serif">reserve-os</text><rect x="40" y="176" width="135" height="44" rx="6" fill="#085041" stroke="#5DCAA5" stroke-width="1.2"/><text x="107.5" y="203" text-anchor="middle" font-size="12" font-weight="600" fill="#9FE1CB" font-family="ui-sans-serif, system-ui, sans-serif">shift-cloud</text><rect x="195" y="176" width="135" height="44" rx="6" fill="#085041" stroke="#5DCAA5" stroke-width="1.2"/><text x="262.5" y="203" text-anchor="middle" font-size="12" font-weight="600" fill="#9FE1CB" font-family="ui-sans-serif, system-ui, sans-serif">caddy-os</text><rect x="350" y="176" width="135" height="44" rx="6" fill="#085041" stroke="#5DCAA5" stroke-width="1.2"/><text x="417.5" y="203" text-anchor="middle" font-size="12" font-weight="600" fill="#9FE1CB" font-family="ui-sans-serif, system-ui, sans-serif">legal-os</text><rect x="505" y="176" width="135" height="44" rx="6" fill="#085041" stroke="#5DCAA5" stroke-width="1.2"/><text x="572.5" y="203" text-anchor="middle" font-size="12" font-weight="600" fill="#9FE1CB" font-family="ui-sans-serif, system-ui, sans-serif">survey-os</text><line x1="107" y1="220" x2="107" y2="258" stroke="#8a897f" stroke-width="1.5" marker-end="url(#ar)"/><line x1="262" y1="220" x2="262" y2="258" stroke="#8a897f" stroke-width="1.5" marker-end="url(#ar)"/><line x1="417" y1="220" x2="417" y2="258" stroke="#8a897f" stroke-width="1.5" marker-end="url(#ar)"/><line x1="572" y1="220" x2="572" y2="258" stroke="#8a897f" stroke-width="1.5" marker-end="url(#ar)"/><rect x="40" y="262" width="600" height="88" rx="6" fill="#3E3E3B" stroke="#B4B2A9" stroke-width="1.2"/><text x="340" y="292" text-anchor="middle" font-size="14" font-weight="600" fill="#D3D1C7" font-family="ui-sans-serif, system-ui, sans-serif">Supabase 共有DB（単一プロジェクト）</text><text x="340" y="316" text-anchor="middle" font-size="11.5" fill="#B4B2A9" font-family="ui-sans-serif, system-ui, sans-serif">mbr_ / mon_ / cad_ / leg_ / svy_ / res_ / sec_ / vault_ / fin_ / 無印(staff, shifts)</text><text x="340" y="336" text-anchor="middle" font-size="11.5" fill="#B4B2A9" font-family="ui-sans-serif, system-ui, sans-serif">RLS(company_id)・audit_logs・approval_requests・notifications</text><line x1="340" y1="350" x2="340" y2="382" stroke="#8a897f" stroke-width="1.5" marker-end="url(#ar)"/><rect x="110" y="386" width="460" height="60" rx="6" fill="#712B13" stroke="#F0997B" stroke-width="1.2"/><text x="340" y="410" text-anchor="middle" font-size="14" font-weight="600" fill="#F5C4B3" font-family="ui-sans-serif, system-ui, sans-serif">自動集約（保存時・夜間）</text><text x="340" y="430" text-anchor="middle" font-size="11.5" fill="#F0997B" font-family="ui-sans-serif, system-ui, sans-serif">fin_entries（事業×科目×月）→ refresh_*_kpis → kpis</text><line x1="280" y1="446" x2="185" y2="482" stroke="#8a897f" stroke-width="1.5" marker-end="url(#ar)"/><line x1="400" y1="446" x2="495" y2="482" stroke="#8a897f" stroke-width="1.5" marker-end="url(#ar)"/><rect x="40" y="486" width="280" height="64" rx="6" fill="#3C3489" stroke="#AFA9EC" stroke-width="1.2"/><text x="180" y="512" text-anchor="middle" font-size="14" font-weight="600" fill="#CECBF6" font-family="ui-sans-serif, system-ui, sans-serif">GENESIS 司令室</text><text x="180" y="532" text-anchor="middle" font-size="11.5" fill="#AFA9EC" font-family="ui-sans-serif, system-ui, sans-serif">Cockpit・Inbox承認・Finance・CEO AI</text><rect x="360" y="486" width="280" height="64" rx="6" fill="#712B13" stroke="#F0997B" stroke-width="1.2"/><text x="500" y="512" text-anchor="middle" font-size="14" font-weight="600" fill="#F5C4B3" font-family="ui-sans-serif, system-ui, sans-serif">Report OS</text><text x="500" y="532" text-anchor="middle" font-size="11.5" fill="#F0997B" font-family="ui-sans-serif, system-ui, sans-serif">月次.pptx（数値自動＋AI文章下書き）</text></svg>