<svg xmlns="http://www.w3.org/2000/svg" width="100%" viewBox="0 0 680 596" role="img"><title>全体接続マップ</title><defs><marker id="ar" viewBox="0 0 10 10" refX="9" refY="5" markerWidth="7" markerHeight="7" orient="auto-start-reverse"><path d="M0 0L10 5L0 10z" fill="#6b7f99"/></marker></defs><rect x="0" y="0" width="680" height="596" rx="12" fill="#05070d"/><rect x="40" y="40" width="135" height="48" rx="7" fill="#141D2B" stroke="#7C8DA6" stroke-width="1.3"/><text x="107.5" y="69.5" text-anchor="middle" font-size="13.5" font-weight="600" fill="#D9E1EC" font-family="ui-sans-serif, system-ui, sans-serif">Smart Hello xlsx</text><rect x="195" y="40" width="135" height="48" rx="7" fill="#141D2B" stroke="#7C8DA6" stroke-width="1.3"/><text x="262.5" y="69.5" text-anchor="middle" font-size="13.5" font-weight="600" fill="#D9E1EC" font-family="ui-sans-serif, system-ui, sans-serif">銀行・AMEX CSV</text><rect x="350" y="40" width="135" height="48" rx="7" fill="#141D2B" stroke="#7C8DA6" stroke-width="1.3"/><text x="417.5" y="69.5" text-anchor="middle" font-size="13.5" font-weight="600" fill="#D9E1EC" font-family="ui-sans-serif, system-ui, sans-serif">ワークスWebEDI</text><rect x="505" y="40" width="135" height="48" rx="7" fill="#141D2B" stroke="#7C8DA6" stroke-width="1.3"/><text x="572.5" y="69.5" text-anchor="middle" font-size="13.5" font-weight="600" fill="#D9E1EC" font-family="ui-sans-serif, system-ui, sans-serif">Web・LINE・メール</text><line x1="107" y1="88" x2="107" y2="124" stroke="#6b7f99" stroke-width="1.6" marker-end="url(#ar)"/><line x1="262" y1="88" x2="262" y2="124" stroke="#6b7f99" stroke-width="1.6" marker-end="url(#ar)"/><line x1="417" y1="88" x2="417" y2="124" stroke="#6b7f99" stroke-width="1.6" marker-end="url(#ar)"/><line x1="572" y1="88" x2="572" y2="124" stroke="#6b7f99" stroke-width="1.6" marker-end="url(#ar)"/><rect x="40" y="128" width="135" height="48" rx="7" fill="#0B2E55" stroke="#5EA1E6" stroke-width="1.3"/><text x="107.5" y="157.5" text-anchor="middle" font-size="13.5" font-weight="600" fill="#D6E8FB" font-family="ui-sans-serif, system-ui, sans-serif">member-os</text><rect x="195" y="128" width="135" height="48" rx="7" fill="#0B2E55" stroke="#5EA1E6" stroke-width="1.3"/><text x="262.5" y="157.5" text-anchor="middle" font-size="13.5" font-weight="600" fill="#D6E8FB" font-family="ui-sans-serif, system-ui, sans-serif">money-golfwing</text><rect x="350" y="128" width="135" height="48" rx="7" fill="#0B2E55" stroke="#5EA1E6" stroke-width="1.3"/><text x="417.5" y="157.5" text-anchor="middle" font-size="13.5" font-weight="600" fill="#D6E8FB" font-family="ui-sans-serif, system-ui, sans-serif">GolfOrder</text><rect x="505" y="128" width="135" height="48" rx="7" fill="#0B2E55" stroke="#5EA1E6" stroke-width="1.3"/><text x="572.5" y="157.5" text-anchor="middle" font-size="13.5" font-weight="600" fill="#D6E8FB" font-family="ui-sans-serif, system-ui, sans-serif">reserve-os</text><rect x="40" y="184" width="135" height="48" rx="7" fill="#0B2E55" stroke="#5EA1E6" stroke-width="1.3"/><text x="107.5" y="213.5" text-anchor="middle" font-size="13.5" font-weight="600" fill="#D6E8FB" font-family="ui-sans-serif, system-ui, sans-serif">shift-cloud</text><rect x="195" y="184" width="135" height="48" rx="7" fill="#0B2E55" stroke="#5EA1E6" stroke-width="1.3"/><text x="262.5" y="213.5" text-anchor="middle" font-size="13.5" font-weight="600" fill="#D6E8FB" font-family="ui-sans-serif, system-ui, sans-serif">caddy-os</text><rect x="350" y="184" width="135" height="48" rx="7" fill="#0B2E55" stroke="#5EA1E6" stroke-width="1.3"/><text x="417.5" y="213.5" text-anchor="middle" font-size="13.5" font-weight="600" fill="#D6E8FB" font-family="ui-sans-serif, system-ui, sans-serif">legal-os</text><rect x="505" y="184" width="135" height="48" rx="7" fill="#0B2E55" stroke="#5EA1E6" stroke-width="1.3"/><text x="572.5" y="213.5" text-anchor="middle" font-size="13.5" font-weight="600" fill="#D6E8FB" font-family="ui-sans-serif, system-ui, sans-serif">survey-os</text><line x1="107" y1="232" x2="107" y2="268" stroke="#6b7f99" stroke-width="1.6" marker-end="url(#ar)"/><line x1="262" y1="232" x2="262" y2="268" stroke="#6b7f99" stroke-width="1.6" marker-end="url(#ar)"/><line x1="417" y1="232" x2="417" y2="268" stroke="#6b7f99" stroke-width="1.6" marker-end="url(#ar)"/><line x1="572" y1="232" x2="572" y2="268" stroke="#6b7f99" stroke-width="1.6" marker-end="url(#ar)"/><rect x="40" y="272" width="600" height="96" rx="7" fill="#141D2B" stroke="#7C8DA6" stroke-width="1.3"/><text x="340" y="300" text-anchor="middle" font-size="16" font-weight="600" fill="#D9E1EC" font-family="ui-sans-serif, system-ui, sans-serif">Supabase 共有DB（単一プロジェクト）</text><text x="340" y="326" text-anchor="middle" font-size="12.5" fill="#9AABC4" font-family="ui-sans-serif, system-ui, sans-serif">mbr_ / mon_ / cad_ / leg_ / svy_ / res_ / sec_ / vault_ / fin_ / 無印(staff, shifts)</text><text x="340" y="348" text-anchor="middle" font-size="12.5" fill="#9AABC4" font-family="ui-sans-serif, system-ui, sans-serif">RLS(company_id)・audit_logs・approval_requests・notifications</text><line x1="340" y1="368" x2="340" y2="398" stroke="#6b7f99" stroke-width="1.6" marker-end="url(#ar)"/><rect x="110" y="402" width="460" height="64" rx="7" fill="#07364A" stroke="#3ECBEC" stroke-width="1.3"/><text x="340" y="427" text-anchor="middle" font-size="16" font-weight="600" fill="#CDF3FC" font-family="ui-sans-serif, system-ui, sans-serif">自動集約（保存時・夜間）</text><text x="340" y="450" text-anchor="middle" font-size="13" fill="#7ADFF5" font-family="ui-sans-serif, system-ui, sans-serif">fin_entries（事業×科目×月）→ refresh_*_kpis → kpis</text><line x1="280" y1="466" x2="185" y2="500" stroke="#6b7f99" stroke-width="1.6" marker-end="url(#ar)"/><line x1="400" y1="466" x2="495" y2="500" stroke="#6b7f99" stroke-width="1.6" marker-end="url(#ar)"/><rect x="40" y="504" width="280" height="68" rx="7" fill="#232060" stroke="#9BA6F2" stroke-width="1.3"/><text x="180" y="531" text-anchor="middle" font-size="16" font-weight="600" fill="#DDE1FC" font-family="ui-sans-serif, system-ui, sans-serif">GENESIS 司令室</text><text x="180" y="554" text-anchor="middle" font-size="13" fill="#AEB6F5" font-family="ui-sans-serif, system-ui, sans-serif">Cockpit・Inbox承認・Finance・CEO AI</text><rect x="360" y="504" width="280" height="68" rx="7" fill="#07364A" stroke="#3ECBEC" stroke-width="1.3"/><text x="500" y="531" text-anchor="middle" font-size="16" font-weight="600" fill="#CDF3FC" font-family="ui-sans-serif, system-ui, sans-serif">Report OS</text><text x="500" y="554" text-anchor="middle" font-size="13" fill="#7ADFF5" font-family="ui-sans-serif, system-ui, sans-serif">月次.pptx（数値自動＋AI文章下書き）</text></svg>