<svg xmlns="http://www.w3.org/2000/svg" width="100%" viewBox="0 0 680 480" role="img"><title>member-os フロー</title><defs><marker id="ar" viewBox="0 0 10 10" refX="9" refY="5" markerWidth="7" markerHeight="7" orient="auto-start-reverse"><path d="M0 0L10 5L0 10z" fill="#6b7f99"/></marker></defs><rect x="0" y="0" width="680" height="480" rx="12" fill="#05070d"/><rect x="40" y="16" width="250" height="30" rx="7" fill="#141D2B" stroke="#7C8DA6" stroke-width="1.3"/><text x="165" y="36.5" text-anchor="middle" font-size="13.5" font-weight="600" fill="#D9E1EC" font-family="ui-sans-serif, system-ui, sans-serif">member-os（体験受付・名簿）</text><rect x="40" y="64" width="340" height="56" rx="7" fill="#0B2E55" stroke="#5EA1E6" stroke-width="1.3"/><text x="210" y="85" text-anchor="middle" font-size="16" font-weight="600" fill="#D6E8FB" font-family="ui-sans-serif, system-ui, sans-serif">受付URL発行 → タブレット設置</text><text x="210" y="108" text-anchor="middle" font-size="13" fill="#8FBFF0" font-family="ui-sans-serif, system-ui, sans-serif">朝イチ・お客様専用画面</text><line x1="210" y1="120" x2="210" y2="144" stroke="#6b7f99" stroke-width="1.6" marker-end="url(#ar)"/><rect x="40" y="148" width="340" height="56" rx="7" fill="#0B2E55" stroke="#5EA1E6" stroke-width="1.3"/><text x="210" y="169" text-anchor="middle" font-size="16" font-weight="600" fill="#D6E8FB" font-family="ui-sans-serif, system-ui, sans-serif">お客様が自己入力</text><text x="210" y="192" text-anchor="middle" font-size="13" fill="#8FBFF0" font-family="ui-sans-serif, system-ui, sans-serif">名前・利用区分・同意・サイン</text><line x1="210" y1="204" x2="210" y2="228" stroke="#6b7f99" stroke-width="1.6" marker-end="url(#ar)"/><rect x="40" y="232" width="340" height="56" rx="7" fill="#0B2E55" stroke="#5EA1E6" stroke-width="1.3"/><text x="210" y="253" text-anchor="middle" font-size="16" font-weight="600" fill="#D6E8FB" font-family="ui-sans-serif, system-ui, sans-serif">スタッフが受付台帳で追記</text><text x="210" y="276" text-anchor="middle" font-size="13" fill="#8FBFF0" font-family="ui-sans-serif, system-ui, sans-serif">利用区分・支払・メモを確認して保存</text><line x1="210" y1="288" x2="210" y2="312" stroke="#6b7f99" stroke-width="1.6" marker-end="url(#ar)"/><rect x="40" y="316" width="340" height="56" rx="7" fill="#0B2E55" stroke="#5EA1E6" stroke-width="1.3"/><text x="210" y="337" text-anchor="middle" font-size="16" font-weight="600" fill="#D6E8FB" font-family="ui-sans-serif, system-ui, sans-serif">入会が決まったら【入会】</text><text x="210" y="360" text-anchor="middle" font-size="13" fill="#8FBFF0" font-family="ui-sans-serif, system-ui, sans-serif">入会率KPIに自動反映（押し忘れ注意）</text><line x1="210" y1="372" x2="210" y2="396" stroke="#6b7f99" stroke-width="1.6" marker-end="url(#ar)"/><rect x="40" y="400" width="340" height="56" rx="7" fill="#0B2E55" stroke="#5EA1E6" stroke-width="1.3"/><text x="210" y="421" text-anchor="middle" font-size="16" font-weight="600" fill="#D6E8FB" font-family="ui-sans-serif, system-ui, sans-serif">月次Excel出力</text><text x="210" y="444" text-anchor="middle" font-size="13" fill="#8FBFF0" font-family="ui-sans-serif, system-ui, sans-serif">本部提出用・従来と同形式</text><rect x="430" y="148" width="218" height="56" rx="7" fill="#07364A" stroke="#3ECBEC" stroke-width="1.3"/><text x="539" y="169" text-anchor="middle" font-size="13.5" font-weight="600" fill="#CDF3FC" font-family="ui-sans-serif, system-ui, sans-serif">Smart Hello 取込 /import</text><text x="539" y="192" text-anchor="middle" font-size="12" fill="#7ADFF5" font-family="ui-sans-serif, system-ui, sans-serif">会員名簿・一時利用・予約</text><rect x="430" y="274" width="218" height="56" rx="7" fill="#141D2B" stroke="#7C8DA6" stroke-width="1.3"/><text x="539" y="295" text-anchor="middle" font-size="13.5" font-weight="600" fill="#D9E1EC" font-family="ui-sans-serif, system-ui, sans-serif">mbr_members / walkin_visits</text><text x="539" y="318" text-anchor="middle" font-size="12" fill="#9AABC4" font-family="ui-sans-serif, system-ui, sans-serif">mbr_reservations（台帳の保存先）</text><rect x="430" y="400" width="218" height="56" rx="7" fill="#232060" stroke="#9BA6F2" stroke-width="1.3"/><text x="539" y="421" text-anchor="middle" font-size="13.5" font-weight="600" fill="#DDE1FC" font-family="ui-sans-serif, system-ui, sans-serif">Genesis KPI・Report OS</text><text x="539" y="444" text-anchor="middle" font-size="12" fill="#AEB6F5" font-family="ui-sans-serif, system-ui, sans-serif">入会率・体験数・月次資料が読む</text><line x1="539" y1="204" x2="539" y2="270" stroke="#6b7f99" stroke-width="1.6" marker-end="url(#ar)"/><line x1="539" y1="330" x2="539" y2="396" stroke="#6b7f99" stroke-width="1.6" marker-end="url(#ar)"/><line x1="380" y1="344" x2="426" y2="315" stroke="#6b7f99" stroke-width="1.6" marker-end="url(#ar)"/></svg>