<svg xmlns="http://www.w3.org/2000/svg" width="100%" viewBox="0 0 680 472" role="img"><title>Money OS フロー</title><defs><marker id="ar" viewBox="0 0 10 10" refX="9" refY="5" markerWidth="7" markerHeight="7" orient="auto-start-reverse"><path d="M0 0L10 5L0 10z" fill="#6b7f99"/></marker></defs><rect x="0" y="0" width="680" height="472" rx="12" fill="#05070d"/><rect x="40" y="16" width="260" height="30" rx="7" fill="#141D2B" stroke="#7C8DA6" stroke-width="1.3"/><text x="170" y="36.5" text-anchor="middle" font-size="13.5" font-weight="600" fill="#D9E1EC" font-family="ui-sans-serif, system-ui, sans-serif">Money OS（money-golfwing）</text><rect x="40" y="58" width="290" height="56" rx="7" fill="#0B2E55" stroke="#5EA1E6" stroke-width="1.3"/><text x="185" y="79" text-anchor="middle" font-size="16" font-weight="600" fill="#D6E8FB" font-family="ui-sans-serif, system-ui, sans-serif">現場スタッフが入力</text><text x="185" y="102" text-anchor="middle" font-size="13" fill="#8FBFF0" font-family="ui-sans-serif, system-ui, sans-serif">売上明細・現金出納・経費・金種</text><rect x="350" y="58" width="290" height="56" rx="7" fill="#0B2E55" stroke="#5EA1E6" stroke-width="1.3"/><text x="495" y="79" text-anchor="middle" font-size="16" font-weight="600" fill="#D6E8FB" font-family="ui-sans-serif, system-ui, sans-serif">CSV取込</text><text x="495" y="102" text-anchor="middle" font-size="13" fill="#8FBFF0" font-family="ui-sans-serif, system-ui, sans-serif">AMEX・尼崎信金（マッピング確定）</text><line x1="185" y1="114" x2="290" y2="136" stroke="#6b7f99" stroke-width="1.6" marker-end="url(#ar)"/><line x1="495" y1="114" x2="390" y2="136" stroke="#6b7f99" stroke-width="1.6" marker-end="url(#ar)"/><rect x="170" y="140" width="340" height="56" rx="7" fill="#141D2B" stroke="#7C8DA6" stroke-width="1.3"/><text x="340" y="161" text-anchor="middle" font-size="16" font-weight="600" fill="#D9E1EC" font-family="ui-sans-serif, system-ui, sans-serif">mon_* テーブル（共有DB）</text><text x="340" y="184" text-anchor="middle" font-size="13" fill="#9AABC4" font-family="ui-sans-serif, system-ui, sans-serif">書いた瞬間にGENESISから見える</text><line x1="340" y1="196" x2="340" y2="220" stroke="#6b7f99" stroke-width="1.6" marker-end="url(#ar)"/><rect x="170" y="224" width="340" height="56" rx="7" fill="#07364A" stroke="#3ECBEC" stroke-width="1.3"/><text x="340" y="245" text-anchor="middle" font-size="16" font-weight="600" fill="#CDF3FC" font-family="ui-sans-serif, system-ui, sans-serif">保存時・夜間に自動集計</text><text x="340" y="268" text-anchor="middle" font-size="13" fill="#7ADFF5" font-family="ui-sans-serif, system-ui, sans-serif">fin_entries（事業×科目×月）へ</text><line x1="340" y1="280" x2="340" y2="304" stroke="#6b7f99" stroke-width="1.6" marker-end="url(#ar)"/><rect x="170" y="308" width="340" height="56" rx="7" fill="#07364A" stroke="#3ECBEC" stroke-width="1.3"/><text x="340" y="329" text-anchor="middle" font-size="16" font-weight="600" fill="#CDF3FC" font-family="ui-sans-serif, system-ui, sans-serif">refresh_finance_kpis</text><text x="340" y="352" text-anchor="middle" font-size="13" fill="#7ADFF5" font-family="ui-sans-serif, system-ui, sans-serif">kpis を更新</text><line x1="340" y1="364" x2="340" y2="388" stroke="#6b7f99" stroke-width="1.6" marker-end="url(#ar)"/><rect x="170" y="392" width="340" height="56" rx="7" fill="#232060" stroke="#9BA6F2" stroke-width="1.3"/><text x="340" y="413" text-anchor="middle" font-size="16" font-weight="600" fill="#DDE1FC" font-family="ui-sans-serif, system-ui, sans-serif">GENESIS</text><text x="340" y="436" text-anchor="middle" font-size="13" fill="#AEB6F5" font-family="ui-sans-serif, system-ui, sans-serif">事業別PL・経理AI・5大KPI</text></svg>