<svg xmlns="http://www.w3.org/2000/svg" width="100%" viewBox="0 0 680 564" role="img"><title>Survey OS フロー</title><defs><marker id="ar" viewBox="0 0 10 10" refX="9" refY="5" markerWidth="7" markerHeight="7" orient="auto-start-reverse"><path d="M0 0L10 5L0 10z" fill="#6b7f99"/></marker></defs><rect x="0" y="0" width="680" height="564" rx="12" fill="#05070d"/><rect x="40" y="16" width="240" height="30" rx="7" fill="#141D2B" stroke="#7C8DA6" stroke-width="1.3"/><text x="160" y="36.5" text-anchor="middle" font-size="13.5" font-weight="600" fill="#D9E1EC" font-family="ui-sans-serif, system-ui, sans-serif">Survey OS（アンケート）</text><rect x="40" y="64" width="340" height="56" rx="7" fill="#0B2E55" stroke="#5EA1E6" stroke-width="1.3"/><text x="210" y="85" text-anchor="middle" font-size="16" font-weight="600" fill="#D6E8FB" font-family="ui-sans-serif, system-ui, sans-serif">管理画面で設問を設計</text><text x="210" y="108" text-anchor="middle" font-size="13" fill="#8FBFF0" font-family="ui-sans-serif, system-ui, sans-serif">受講経験による出し分け・順位付け対応</text><line x1="210" y1="120" x2="210" y2="144" stroke="#6b7f99" stroke-width="1.6" marker-end="url(#ar)"/><rect x="40" y="148" width="340" height="56" rx="7" fill="#0B2E55" stroke="#5EA1E6" stroke-width="1.3"/><text x="210" y="169" text-anchor="middle" font-size="16" font-weight="600" fill="#D6E8FB" font-family="ui-sans-serif, system-ui, sans-serif">会員が匿名の公開URLで回答</text><text x="210" y="192" text-anchor="middle" font-size="13" fill="#8FBFF0" font-family="ui-sans-serif, system-ui, sans-serif">slug検証・トークンレス・ドラッグ順位付け</text><line x1="210" y1="204" x2="210" y2="228" stroke="#6b7f99" stroke-width="1.6" marker-end="url(#ar)"/><rect x="40" y="232" width="340" height="56" rx="7" fill="#141D2B" stroke="#7C8DA6" stroke-width="1.3"/><text x="210" y="253" text-anchor="middle" font-size="16" font-weight="600" fill="#D9E1EC" font-family="ui-sans-serif, system-ui, sans-serif">svy_responses / svy_answers</text><text x="210" y="276" text-anchor="middle" font-size="13" fill="#9AABC4" font-family="ui-sans-serif, system-ui, sans-serif">回答は不変・client_keyで緩い重複防止</text><line x1="210" y1="288" x2="210" y2="312" stroke="#6b7f99" stroke-width="1.6" marker-end="url(#ar)"/><rect x="40" y="316" width="340" height="56" rx="7" fill="#07364A" stroke="#3ECBEC" stroke-width="1.3"/><text x="210" y="337" text-anchor="middle" font-size="16" font-weight="600" fill="#CDF3FC" font-family="ui-sans-serif, system-ui, sans-serif">10件ごとに company_events</text><text x="210" y="360" text-anchor="middle" font-size="13" fill="#7ADFF5" font-family="ui-sans-serif, system-ui, sans-serif">GENESISの活動ログ・CEO AIが拾う</text><line x1="210" y1="372" x2="210" y2="396" stroke="#6b7f99" stroke-width="1.6" marker-end="url(#ar)"/><rect x="40" y="400" width="340" height="56" rx="7" fill="#07364A" stroke="#3ECBEC" stroke-width="1.3"/><text x="210" y="421" text-anchor="middle" font-size="16" font-weight="600" fill="#CDF3FC" font-family="ui-sans-serif, system-ui, sans-serif">自動集計</text><text x="210" y="444" text-anchor="middle" font-size="13" fill="#7ADFF5" font-family="ui-sans-serif, system-ui, sans-serif">ボルダ平均＋平均順位・ヒートマップ</text><line x1="210" y1="456" x2="210" y2="480" stroke="#6b7f99" stroke-width="1.6" marker-end="url(#ar)"/><rect x="40" y="484" width="340" height="56" rx="7" fill="#0B2E55" stroke="#5EA1E6" stroke-width="1.3"/><text x="210" y="505" text-anchor="middle" font-size="16" font-weight="600" fill="#D6E8FB" font-family="ui-sans-serif, system-ui, sans-serif">結果画面・CSV書き出し</text><text x="210" y="528" text-anchor="middle" font-size="13" fill="#8FBFF0" font-family="ui-sans-serif, system-ui, sans-serif">コーチ総合ランキング・設問別内訳</text><rect x="430" y="64" width="218" height="56" rx="7" fill="#141D2B" stroke="#7C8DA6" stroke-width="1.3"/><text x="539" y="85" text-anchor="middle" font-size="13.5" font-weight="600" fill="#D9E1EC" font-family="ui-sans-serif, system-ui, sans-serif">第1弾: golfwing-2026</text><text x="539" y="108" text-anchor="middle" font-size="12" fill="#9AABC4" font-family="ui-sans-serif, system-ui, sans-serif">コーチ評価・投入済/未デプロイ</text><line x1="380" y1="92" x2="426" y2="92" stroke="#6b7f99" stroke-width="1.6" marker-end="url(#ar)"/></svg>